<?xml version="1.0" standalone="no"?>
<!DOCTYPE svg PUBLIC "-//W3C//DTD SVG 20010904//EN"
 "http://www.w3.org/TR/2001/REC-SVG-20010904/DTD/svg10.dtd">
<svg version="1.0" xmlns="http://www.w3.org/2000/svg"
 width="4374.000000pt" height="4374.000000pt" viewBox="0 0 4374.000000 4374.000000"
 preserveAspectRatio="xMidYMid meet">
<metadata>
Created by potrace 1.11, written by Peter Selinger 2001-2013
</metadata>
<g transform="translate(0.000000,4374.000000) scale(0.100000,-0.100000)"
fill="#000000" stroke="none">
<path d="M2700 41645 l0 -2095 10845 0 10845 0 0 2095 0 2095 -10845 0 -10845
0 0 -2095z"/>
<path d="M13128 38335 c-2 -1 -68 -6 -148 -10 -80 -4 -165 -8 -190 -10 -91 -6
-216 -16 -245 -19 -16 -2 -61 -7 -100 -10 -136 -14 -150 -15 -195 -22 -25 -3
-56 -7 -70 -9 -40 -4 -133 -16 -160 -20 -14 -2 -45 -7 -70 -10 -52 -7 -86 -13
-132 -21 -18 -3 -42 -7 -53 -9 -60 -8 -115 -18 -175 -30 -14 -2 -38 -7 -55
-10 -16 -3 -41 -7 -55 -10 -14 -3 -36 -7 -50 -10 -14 -3 -36 -7 -50 -10 -14
-3 -36 -7 -50 -10 -14 -3 -36 -7 -50 -10 -14 -3 -36 -8 -50 -11 -14 -3 -41 -9
-60 -14 -19 -5 -47 -12 -62 -15 -51 -10 -73 -15 -213 -50 -77 -20 -149 -38
-160 -40 -26 -6 -166 -46 -185 -53 -8 -3 -19 -6 -25 -7 -5 -2 -37 -11 -70 -21
-33 -10 -62 -18 -65 -19 -24 -4 -453 -145 -490 -162 -8 -3 -17 -7 -20 -8 -20
-5 -87 -29 -95 -34 -5 -3 -12 -6 -15 -6 -5 0 -54 -18 -95 -35 -11 -5 -74 -30
-140 -55 -66 -26 -139 -56 -162 -66 -23 -11 -44 -19 -47 -19 -2 0 -34 -13 -69
-30 -36 -16 -67 -30 -70 -30 -5 0 -121 -53 -292 -133 -131 -62 -474 -236 -525
-266 -16 -10 -145 -82 -225 -126 -27 -15 -58 -35 -69 -44 -10 -9 -21 -15 -25
-13 -3 1 -13 -3 -21 -10 -8 -7 -26 -19 -40 -26 -108 -56 -682 -431 -795 -520
-5 -4 -55 -41 -110 -82 -82 -61 -195 -148 -295 -227 -173 -136 -523 -440 -690
-600 -82 -78 -355 -352 -466 -466 -209 -216 -576 -654 -774 -922 -41 -55 -78
-104 -82 -110 -137 -173 -533 -786 -681 -1058 -21 -37 -46 -82 -56 -100 -57
-101 -258 -487 -263 -505 -1 -4 -26 -59 -56 -122 -47 -100 -71 -152 -77 -170
-1 -3 -10 -23 -20 -45 -10 -22 -19 -42 -20 -45 -1 -3 -16 -36 -33 -74 -18 -38
-32 -74 -32 -80 0 -7 -4 -16 -8 -21 -5 -6 -21 -41 -36 -80 -15 -38 -32 -79
-37 -90 -4 -11 -20 -51 -34 -90 -14 -38 -29 -79 -34 -90 -9 -20 -45 -116 -47
-125 0 -3 -3 -12 -7 -20 -24 -63 -66 -183 -76 -220 -7 -25 -17 -56 -23 -69
-10 -27 -61 -186 -76 -241 -6 -19 -22 -73 -36 -120 -15 -47 -29 -98 -32 -114
-3 -16 -7 -33 -10 -38 -6 -9 -31 -104 -38 -143 -3 -15 -10 -41 -16 -59 -6 -18
-12 -42 -14 -52 -5 -24 -26 -114 -32 -134 -3 -14 -29 -126 -40 -175 -2 -11 -7
-33 -10 -50 -2 -16 -9 -46 -14 -65 -5 -19 -11 -51 -14 -70 -3 -19 -8 -46 -11
-60 -3 -14 -7 -36 -10 -50 -3 -14 -7 -35 -9 -46 -2 -12 -7 -39 -10 -60 -4 -22
-8 -46 -11 -54 -2 -8 -6 -35 -9 -60 -3 -25 -8 -56 -11 -70 -3 -14 -7 -41 -10
-60 -3 -19 -6 -44 -9 -55 -2 -11 -7 -45 -11 -75 -3 -30 -8 -66 -10 -80 -2 -14
-6 -50 -10 -80 -3 -30 -8 -66 -10 -80 -2 -14 -7 -52 -10 -85 -4 -33 -8 -80
-11 -105 -7 -61 -22 -239 -29 -340 -28 -379 -28 -1172 0 -1525 12 -162 17
-214 20 -245 1 -19 6 -69 10 -110 3 -41 8 -86 10 -100 3 -14 7 -50 10 -80 3
-30 8 -66 10 -80 2 -14 7 -50 10 -80 3 -30 8 -67 11 -82 2 -16 6 -40 8 -55 12
-76 19 -120 22 -138 2 -10 6 -35 9 -55 3 -20 7 -47 10 -60 3 -13 7 -42 10 -65
3 -22 8 -47 10 -55 2 -8 7 -28 9 -45 3 -16 10 -55 16 -85 6 -30 13 -66 16 -80
3 -14 7 -33 10 -42 3 -10 7 -30 10 -45 2 -16 7 -41 11 -58 4 -16 7 -32 8 -35
5 -25 19 -87 21 -95 2 -5 5 -21 8 -35 3 -14 22 -88 41 -165 20 -77 38 -147 40
-155 1 -8 8 -35 15 -60 7 -25 11 -45 9 -45 -1 0 3 -9 9 -21 6 -11 13 -32 16
-45 3 -13 16 -62 31 -109 14 -47 28 -94 30 -104 2 -11 12 -42 21 -70 10 -28
17 -53 18 -56 0 -3 13 -41 28 -85 16 -44 30 -87 33 -95 6 -26 84 -245 105
-295 5 -11 18 -47 30 -80 11 -33 27 -73 34 -90 8 -16 35 -84 61 -150 26 -66
52 -124 56 -130 5 -5 9 -14 9 -21 0 -7 16 -47 36 -91 20 -43 44 -96 54 -118
10 -22 46 -98 81 -170 34 -71 63 -132 63 -135 2 -10 69 -145 75 -150 3 -3 30
-52 58 -110 29 -58 66 -127 81 -155 16 -27 42 -75 59 -105 71 -130 86 -156 97
-170 6 -8 22 -35 35 -60 14 -25 39 -67 56 -95 18 -27 67 -106 110 -175 115
-184 407 -610 450 -656 5 -6 17 -22 25 -34 18 -26 95 -129 111 -149 7 -7 50
-61 96 -120 255 -323 531 -628 865 -958 184 -181 247 -241 404 -383 174 -157
414 -356 609 -505 50 -38 95 -73 100 -77 58 -49 413 -298 425 -298 4 0 10 -4
12 -8 2 -7 207 -146 260 -177 10 -5 89 -53 175 -106 183 -112 271 -163 458
-266 82 -45 597 -302 665 -332 30 -13 82 -36 115 -51 33 -15 105 -46 160 -69
55 -23 115 -49 134 -58 18 -8 39 -16 45 -17 6 -1 29 -10 51 -20 22 -10 45 -19
50 -20 6 -2 21 -8 35 -13 30 -14 143 -57 150 -59 3 0 12 -3 20 -7 33 -12 136
-49 145 -52 6 -1 17 -5 25 -8 8 -4 98 -34 200 -67 102 -33 199 -65 217 -71 18
-5 40 -12 50 -14 10 -3 50 -14 88 -26 100 -30 397 -110 464 -124 35 -8 53 -12
144 -34 49 -12 103 -23 120 -26 18 -3 39 -8 47 -10 8 -2 26 -6 40 -9 14 -3 36
-8 50 -11 14 -3 41 -8 60 -11 19 -3 62 -11 95 -19 33 -7 83 -16 110 -21 28 -4
55 -8 60 -10 6 -1 30 -5 55 -9 50 -7 86 -13 129 -20 16 -3 49 -7 72 -10 24 -3
55 -7 69 -10 31 -6 95 -14 146 -20 21 -2 59 -6 84 -10 25 -3 70 -8 100 -11 30
-3 71 -7 90 -9 19 -2 67 -7 105 -10 39 -3 90 -8 115 -10 25 -2 88 -7 140 -10
52 -4 124 -9 160 -12 36 -3 1063 -8 2283 -10 l2217 -4 0 2520 0 2521 -2057 1
c-1132 1 -2083 2 -2113 4 -86 3 -272 16 -300 20 -14 2 -55 6 -92 10 -37 3 -75
8 -86 10 -10 2 -43 6 -73 10 -30 3 -81 11 -114 17 -33 6 -72 12 -88 14 -29 4
-33 5 -147 28 -80 16 -109 22 -152 32 -15 3 -30 5 -33 5 -2 0 -23 6 -45 14
-22 8 -40 12 -40 10 0 -3 -11 0 -25 5 -14 5 -36 12 -48 14 -13 2 -56 14 -97
26 -41 12 -79 23 -85 25 -5 1 -17 4 -25 7 -8 3 -46 16 -85 28 -38 12 -92 30
-120 40 -27 10 -93 34 -145 53 -52 20 -133 52 -180 72 -47 20 -89 38 -95 39
-26 6 -367 173 -460 226 -113 63 -134 75 -180 103 -84 51 -116 71 -225 143
-58 38 -109 71 -115 73 -5 2 -12 7 -15 10 -3 4 -54 42 -115 86 -171 124 -375
294 -558 465 -27 25 -54 50 -60 56 -47 43 -261 272 -334 356 -423 487 -772
1055 -1000 1628 -28 69 -54 134 -58 145 -4 11 -9 25 -11 30 -1 6 -23 69 -48
140 -43 125 -88 269 -87 280 0 2 -6 23 -14 46 -9 23 -17 51 -20 63 -2 12 -6
31 -9 44 -19 76 -38 156 -42 182 -3 14 -7 33 -10 42 -5 17 -11 45 -19 88 -2
14 -7 39 -9 55 -3 17 -8 40 -10 52 -3 11 -8 43 -12 70 -3 26 -8 57 -10 68 -2
11 -7 40 -10 65 -3 25 -7 56 -10 70 -2 14 -7 54 -10 90 -4 36 -8 79 -10 95
-15 143 -19 265 -19 550 0 288 5 413 20 555 2 19 7 64 10 100 9 87 12 110 18
145 4 17 8 50 11 75 6 42 8 57 21 128 3 15 8 43 11 62 3 19 12 67 21 105 8 39
17 81 19 95 3 14 10 43 16 65 5 22 12 48 14 57 4 20 14 58 18 73 1 6 8 30 15
55 19 71 60 208 89 295 15 44 27 82 28 85 0 3 3 12 7 20 19 50 62 166 62 170
1 3 9 22 18 44 9 21 17 41 17 45 1 3 9 24 20 46 11 22 19 43 20 47 0 9 67 152
143 308 70 143 221 411 310 550 59 91 251 364 299 423 237 296 367 438 605
667 321 307 743 619 1143 845 82 46 397 206 470 238 19 9 62 28 95 42 33 15
65 28 70 29 6 2 28 10 49 20 22 9 50 19 63 22 13 4 26 10 29 15 3 5 12 9 21 9
8 0 29 6 46 14 18 7 55 21 82 31 28 9 57 19 65 22 8 3 20 7 25 8 6 2 42 13 80
26 39 13 72 23 75 24 3 0 11 4 18 8 6 5 12 6 12 3 0 -3 17 1 38 8 30 11 220
60 315 82 46 11 64 15 87 19 14 3 36 7 50 10 14 3 36 7 50 10 14 3 36 7 50 10
13 2 40 7 60 10 20 3 47 8 60 10 50 10 76 14 126 20 28 3 59 7 70 9 16 3 88
11 184 21 142 15 284 20 555 20 272 0 392 -5 545 -20 14 -1 58 -6 97 -9 40 -4
80 -9 90 -10 10 -2 43 -7 73 -11 30 -4 64 -9 75 -11 11 -2 36 -6 55 -9 19 -3
46 -7 60 -10 14 -3 50 -9 80 -15 30 -6 68 -13 84 -15 15 -3 58 -13 95 -21 36
-9 74 -17 84 -20 10 -2 26 -5 35 -8 9 -3 29 -7 44 -10 15 -3 42 -9 60 -15 41
-13 175 -52 197 -56 9 -2 77 -24 151 -50 74 -26 146 -50 160 -55 52 -16 238
-91 325 -130 246 -112 278 -127 440 -215 197 -108 253 -141 455 -274 213 -139
497 -359 661 -510 l54 -50 3 2904 2 2904 28 3 c24 4 25 5 7 12 -11 4 -29 12
-40 16 -11 5 -65 25 -120 45 -55 20 -111 41 -125 47 -74 30 -558 187 -582 188
-5 0 -25 7 -45 14 -33 13 -241 72 -283 81 -8 2 -53 13 -100 25 -47 12 -95 24
-107 26 -12 2 -33 8 -45 13 -13 5 -26 9 -31 9 -7 0 -32 6 -87 18 -14 3 -34 7
-45 9 -11 2 -54 11 -95 20 -41 9 -84 19 -95 21 -11 2 -31 6 -45 9 -14 3 -41 8
-60 11 -19 3 -42 7 -51 10 -9 2 -32 7 -50 9 -19 3 -45 7 -59 10 -55 12 -224
39 -305 50 -11 2 -45 6 -75 9 -30 4 -62 9 -70 11 -8 2 -37 7 -65 10 -27 3 -66
7 -85 9 -19 3 -64 8 -100 11 -36 4 -78 9 -95 10 -16 2 -64 7 -105 10 -41 4
-91 8 -110 10 -19 2 -82 7 -140 11 -58 3 -132 8 -165 11 -71 5 -992 13 -997 8z"/>
<path d="M19353 23498 c2 -7240 6 -13192 9 -13228 4 -36 9 -108 12 -160 4 -52
9 -117 11 -145 3 -27 7 -78 10 -111 2 -34 7 -85 10 -113 3 -28 8 -75 11 -103
3 -29 7 -64 9 -78 2 -14 7 -50 10 -80 3 -30 8 -66 10 -80 2 -14 6 -45 9 -70 3
-25 8 -54 10 -66 2 -12 7 -45 11 -74 4 -29 9 -62 11 -74 2 -12 6 -37 9 -56 3
-19 7 -46 10 -60 3 -14 8 -38 11 -55 2 -16 7 -43 11 -60 3 -16 7 -40 9 -52 2
-13 6 -33 8 -45 4 -22 10 -56 20 -103 28 -134 37 -179 40 -184 2 -3 7 -22 10
-41 3 -19 10 -50 15 -67 5 -18 8 -33 6 -33 -2 0 2 -18 10 -40 8 -22 12 -40 10
-40 -2 0 3 -23 11 -52 9 -28 17 -59 19 -67 12 -58 55 -219 85 -316 10 -33 28
-94 40 -135 12 -41 29 -95 37 -120 9 -25 19 -58 23 -75 5 -16 18 -57 30 -90
12 -33 23 -67 25 -75 4 -18 141 -396 154 -425 28 -61 41 -94 41 -100 0 -4 6
-21 14 -38 7 -18 26 -61 40 -97 30 -71 33 -77 70 -163 14 -32 26 -60 26 -62 0
-15 345 -715 396 -805 14 -25 51 -90 81 -145 89 -159 245 -418 265 -441 10
-11 18 -23 18 -27 0 -10 93 -152 102 -155 4 -2 8 -7 8 -12 0 -8 98 -160 110
-170 3 -3 14 -18 24 -35 76 -120 475 -646 561 -739 6 -6 26 -31 45 -56 33 -42
94 -112 133 -152 9 -10 17 -22 17 -27 0 -5 4 -11 9 -13 4 -1 57 -57 117 -123
189 -207 410 -432 609 -620 76 -71 149 -140 162 -152 40 -39 387 -335 423
-362 19 -14 44 -34 55 -44 81 -74 655 -497 675 -497 5 0 10 -4 10 -8 0 -5 12
-15 28 -23 15 -8 36 -22 46 -31 11 -10 26 -18 33 -18 7 0 13 -4 13 -8 0 -5 12
-15 28 -23 15 -8 29 -17 32 -20 10 -11 120 -79 129 -79 5 0 11 -4 13 -8 3 -7
215 -140 248 -155 8 -4 29 -16 45 -26 30 -20 126 -76 200 -116 156 -87 217
-119 435 -228 135 -68 306 -150 380 -184 149 -67 349 -154 365 -158 6 -1 24
-8 40 -15 17 -7 35 -14 40 -15 6 -2 33 -13 60 -25 27 -12 54 -23 60 -25 5 -1
24 -7 40 -14 32 -14 104 -40 120 -45 6 -2 24 -8 40 -15 55 -23 525 -180 525
-175 0 2 17 -3 38 -11 28 -11 199 -62 267 -79 6 -1 30 -8 55 -15 25 -7 55 -15
67 -17 12 -2 34 -9 48 -14 14 -5 25 -8 25 -5 0 2 18 -2 40 -10 22 -8 40 -12
40 -10 0 3 11 0 25 -5 14 -5 36 -12 48 -14 12 -3 31 -7 42 -10 22 -5 157 -35
190 -42 11 -2 31 -6 45 -9 48 -11 65 -15 90 -20 14 -2 48 -9 75 -15 56 -11 73
-14 195 -36 135 -24 181 -31 375 -59 22 -3 78 -10 195 -25 153 -19 170 -21
227 -26 32 -3 76 -7 98 -9 22 -2 81 -7 130 -10 50 -4 106 -8 125 -10 275 -27
1105 -27 1485 0 171 12 325 25 455 40 67 7 138 16 170 20 19 3 55 7 80 10 25
3 56 7 69 10 14 2 47 7 75 10 28 3 58 7 66 10 8 2 35 6 60 9 25 3 56 8 70 11
14 3 39 7 55 10 17 2 40 6 51 9 12 2 37 7 55 10 19 3 44 8 55 10 12 2 37 7 55
10 19 3 45 8 59 11 14 3 36 8 50 10 14 2 36 7 50 10 14 3 36 8 50 11 14 2 36
7 50 11 37 9 43 11 70 17 14 3 36 8 50 11 14 3 34 8 45 9 38 7 317 77 341 86
14 6 35 12 47 14 99 20 662 198 801 253 34 13 68 26 76 28 8 2 47 15 85 29 70
26 83 32 140 57 17 7 32 13 35 14 3 1 18 7 33 13 16 7 31 12 34 12 4 0 25 9
47 19 23 11 70 31 106 46 36 14 74 30 85 35 11 5 45 20 75 33 30 13 84 37 120
53 89 40 600 295 680 340 36 20 85 47 110 61 25 13 52 28 60 33 8 5 89 53 180
107 91 53 203 121 250 151 165 106 285 185 290 191 3 3 13 11 22 16 135 79
593 425 873 659 237 199 384 333 655 602 223 220 332 334 495 519 336 380 642
776 900 1165 38 58 73 110 78 115 26 33 367 598 367 610 0 1 25 47 56 101 57
101 300 584 343 684 56 127 74 166 87 192 8 15 15 30 15 33 0 2 9 26 20 52 11
27 38 93 61 148 22 55 44 109 49 120 56 122 287 801 324 955 2 8 20 71 40 140
19 69 37 136 40 150 3 14 13 55 24 93 11 37 18 67 16 67 -3 0 0 11 5 26 6 14
12 39 15 57 3 18 8 40 11 49 3 9 7 25 9 35 2 10 13 61 25 113 11 52 23 106 25
120 3 14 7 36 10 50 3 14 8 40 11 59 3 18 8 43 10 55 4 20 18 100 29 161 2 17
7 41 10 55 3 14 7 42 10 64 3 21 7 50 9 65 3 14 7 44 11 66 3 23 7 50 9 60 2
11 7 49 11 85 4 36 9 74 11 85 2 11 6 44 9 75 3 31 7 64 9 75 4 21 17 153 21
215 1 19 6 73 10 120 23 265 29 459 29 875 1 357 -5 581 -19 745 -2 25 -6 86
-10 135 -4 50 -8 106 -10 125 -2 19 -7 64 -10 99 -3 35 -7 76 -9 90 -3 14 -7
56 -11 93 -3 37 -8 77 -10 90 -3 13 -7 41 -9 63 -3 22 -7 54 -10 70 -3 17 -7
50 -10 75 -3 25 -8 54 -10 65 -2 11 -7 42 -10 68 -4 27 -9 58 -12 70 -2 12 -6
37 -9 57 -3 20 -8 47 -11 60 -3 14 -6 34 -8 45 -2 11 -6 34 -9 50 -4 17 -9 44
-12 60 -8 49 -14 78 -40 195 -9 41 -18 84 -19 95 -2 11 -9 43 -16 70 -17 73
-20 83 -24 102 -4 19 -43 175 -51 205 -3 10 -7 26 -9 36 -5 24 -71 257 -97
342 -11 36 -21 72 -23 80 -2 8 -26 80 -52 160 -26 80 -49 147 -49 150 -1 3 -4
12 -8 20 -3 8 -15 44 -28 80 -59 176 -222 594 -239 615 -5 6 -9 13 -9 18 0 4
-8 23 -16 43 -8 20 -15 38 -15 41 0 2 -11 28 -24 56 -52 112 -95 207 -96 212
0 3 -30 65 -66 137 -173 347 -224 444 -386 727 -65 113 -153 256 -160 259 -4
2 -8 8 -8 13 0 13 -160 263 -171 267 -5 2 -9 8 -9 14 0 11 -61 101 -72 106 -5
2 -8 8 -8 13 0 8 -59 94 -201 289 -115 160 -505 650 -539 680 -4 3 -48 52
-100 110 -349 393 -789 821 -1175 1141 -49 41 -99 82 -110 91 -43 37 -186 148
-310 240 -71 54 -134 101 -140 106 -5 4 -35 25 -65 47 -30 22 -57 42 -60 45
-3 3 -13 10 -22 15 -9 6 -115 76 -235 156 -198 132 -264 175 -315 204 -10 6
-66 39 -125 75 -60 36 -117 70 -128 76 -11 6 -36 20 -55 31 -45 26 -127 72
-210 118 -84 46 -553 280 -650 324 -180 81 -337 148 -500 212 -249 99 -283
111 -530 198 -89 31 -346 112 -364 115 -6 1 -17 5 -23 9 -7 5 -13 6 -13 3 0
-3 -16 2 -35 10 -19 8 -37 14 -40 14 -5 0 -7 0 -22 4 -67 18 -103 28 -128 36
-16 5 -41 11 -55 14 -14 3 -50 13 -80 21 -30 9 -73 20 -95 25 -70 15 -85 19
-93 24 -4 2 -27 7 -51 11 -24 3 -53 10 -65 14 -11 5 -24 9 -29 9 -4 0 -31 6
-60 11 -28 6 -62 13 -75 16 -13 2 -31 6 -40 9 -9 3 -35 8 -57 12 -22 3 -42 7
-45 9 -3 2 -24 6 -46 9 -39 6 -62 10 -114 21 -34 6 -78 14 -120 21 -19 3 -46
7 -60 10 -14 2 -41 7 -60 9 -19 3 -46 7 -60 10 -14 3 -45 7 -70 11 -76 10 -93
12 -140 19 -25 3 -61 8 -80 10 -19 2 -55 7 -80 10 -95 12 -210 24 -295 30 -38
3 -90 8 -115 10 -25 3 -88 7 -140 11 -52 3 -124 8 -160 11 -36 3 -1064 8
-2285 10 l-2220 4 0 -2520 0 -2521 2060 -1 c1133 -1 2087 -2 2120 -4 69 -3
243 -15 295 -20 19 -2 62 -6 94 -9 33 -4 71 -8 85 -11 14 -2 46 -6 71 -9 25
-3 54 -8 65 -10 11 -2 43 -7 70 -11 69 -9 80 -11 175 -30 14 -3 36 -8 50 -10
14 -3 36 -7 50 -11 14 -3 34 -7 45 -9 12 -1 48 -10 80 -18 33 -9 83 -21 110
-29 28 -7 52 -13 55 -13 74 -14 371 -110 555 -180 147 -55 174 -67 293 -121
40 -19 75 -34 78 -34 7 0 269 -131 349 -175 39 -21 133 -76 209 -122 77 -45
143 -83 148 -83 4 0 8 -3 8 -8 0 -4 26 -23 58 -42 31 -19 62 -38 67 -42 6 -5
55 -41 110 -80 55 -40 103 -77 107 -83 5 -6 8 -6 8 0 0 6 3 6 8 0 4 -6 38 -35
77 -65 348 -273 673 -598 1014 -1015 9 -11 40 -54 70 -95 30 -41 57 -77 60
-80 4 -3 57 -81 119 -175 61 -93 116 -175 122 -182 5 -7 10 -14 10 -17 0 -2
23 -44 51 -93 28 -48 65 -113 82 -143 41 -73 181 -352 183 -365 1 -5 20 -49
43 -97 23 -48 41 -90 41 -93 0 -3 7 -22 17 -43 9 -20 17 -39 18 -42 1 -3 4
-12 8 -20 53 -136 144 -408 178 -530 23 -82 26 -96 44 -165 24 -95 24 -98 51
-220 2 -11 6 -31 9 -45 12 -53 31 -162 40 -225 3 -22 8 -51 11 -65 3 -13 7
-40 10 -60 2 -19 6 -55 10 -80 3 -25 7 -63 10 -85 2 -22 6 -62 8 -90 17 -162
21 -272 21 -550 0 -276 -6 -436 -20 -545 -2 -19 -7 -60 -9 -90 -10 -92 -28
-233 -41 -300 -3 -14 -7 -41 -10 -60 -3 -19 -8 -46 -10 -60 -12 -57 -15 -77
-20 -105 -10 -57 -67 -290 -97 -395 -16 -58 -31 -112 -33 -120 -2 -8 -4 -15
-5 -15 -1 0 -3 -7 -5 -15 -2 -8 -24 -76 -50 -150 -25 -74 -48 -139 -49 -145
-3 -10 -16 -43 -39 -100 -6 -16 -12 -32 -13 -35 0 -3 -5 -16 -12 -30 -6 -14
-36 -83 -67 -155 -67 -153 -177 -379 -187 -383 -5 -2 -8 -9 -8 -15 0 -9 -45
-91 -125 -229 -218 -378 -619 -891 -915 -1174 -25 -24 -74 -71 -110 -106 -79
-75 -233 -210 -349 -303 -46 -37 -89 -71 -95 -77 -45 -39 -480 -338 -492 -338
-1 0 -42 -24 -91 -53 -144 -88 -361 -202 -518 -274 -153 -70 -206 -93 -211
-93 -3 0 -22 -7 -42 -16 -45 -20 -68 -29 -107 -43 -16 -6 -43 -16 -60 -22 -16
-7 -32 -13 -35 -14 -3 -1 -12 -4 -20 -8 -23 -9 -275 -90 -277 -89 -2 1 -22 -6
-45 -14 -24 -9 -51 -17 -61 -19 -10 -2 -27 -7 -37 -10 -10 -3 -27 -8 -37 -10
-10 -2 -47 -12 -83 -20 -86 -22 -100 -25 -130 -31 -14 -3 -33 -7 -42 -10 -16
-5 -35 -9 -88 -19 -14 -3 -36 -7 -50 -10 -37 -8 -103 -19 -175 -31 -16 -2 -41
-6 -55 -9 -42 -7 -158 -22 -240 -30 -30 -3 -69 -8 -86 -10 -143 -20 -765 -28
-959 -12 -173 15 -274 25 -314 32 -14 2 -46 6 -71 9 -25 3 -61 8 -80 11 -40 7
-68 12 -125 20 -22 3 -47 7 -55 10 -8 2 -28 7 -45 10 -16 2 -41 7 -55 10 -14
3 -38 8 -55 10 -16 3 -38 8 -47 11 -9 3 -26 7 -37 9 -42 10 -57 13 -121 30
-36 9 -74 19 -85 21 -25 5 -248 71 -275 81 -8 4 -17 7 -20 8 -3 0 -42 13 -87
29 -45 15 -86 28 -90 28 -5 0 -26 9 -48 21 -22 11 -42 20 -45 20 -3 0 -16 4
-30 9 -14 6 -29 11 -35 12 -5 1 -27 10 -49 19 -21 9 -40 17 -41 17 -2 0 -38
16 -79 35 -42 19 -79 35 -82 35 -10 0 -376 185 -432 219 -29 17 -55 31 -57 31
-19 0 -523 329 -546 356 -6 8 -17 14 -24 14 -8 0 -15 3 -17 8 -1 4 -52 46
-113 94 -345 270 -686 606 -959 947 -265 330 -511 716 -682 1071 -25 52 -57
118 -71 145 -14 28 -24 51 -24 52 0 2 -9 24 -21 50 -12 27 -22 53 -24 58 -1 6
-26 66 -54 135 -28 69 -53 132 -55 140 -2 8 -23 69 -45 135 -23 66 -43 127
-46 135 -2 8 -23 87 -48 175 -25 88 -47 172 -50 187 -3 16 -8 40 -11 55 -3 16
-8 36 -11 45 -5 16 -9 35 -19 88 -3 14 -7 36 -10 50 -6 27 -11 58 -20 108 -3
17 -7 45 -10 60 -3 16 -7 44 -9 63 -3 19 -7 48 -10 64 -10 60 -21 160 -31 270
-3 39 -9 90 -12 115 -7 47 -11 3181 -16 12175 -2 2965 -6 5417 -9 5450 -3 33
-9 110 -12 170 -4 61 -8 126 -11 145 -2 19 -7 69 -10 110 -3 41 -8 93 -10 115
-8 87 -15 152 -20 185 -2 19 -7 60 -11 90 -3 30 -7 64 -9 75 -1 11 -6 44 -10
74 -3 30 -9 63 -11 75 -3 12 -6 37 -9 56 -4 41 -16 113 -44 270 -12 63 -23
129 -26 145 -3 17 -8 41 -11 55 -3 14 -8 36 -10 50 -2 14 -7 36 -10 50 -3 14
-7 32 -9 40 -4 20 -75 330 -81 353 -2 9 -6 26 -9 37 -3 11 -7 28 -10 38 -5 18
-33 126 -39 152 -3 8 -14 49 -26 90 -12 41 -23 86 -26 99 -3 13 -9 32 -14 41
-5 9 -11 28 -13 41 -6 28 -33 120 -50 164 -6 17 -12 35 -13 42 -2 14 -91 278
-103 308 -5 11 -21 54 -36 95 -45 125 -206 531 -236 596 -16 34 -29 64 -29 67
0 9 -84 186 -210 442 -115 232 -211 413 -319 598 -28 49 -51 91 -51 93 0 3 -8
17 -19 32 -10 15 -51 81 -92 147 -40 66 -77 122 -81 123 -4 2 -8 8 -8 13 0 11
-72 123 -82 127 -5 2 -8 8 -8 13 0 28 -435 629 -582 804 -9 11 -33 40 -53 65
-63 78 -99 123 -126 154 -297 343 -418 473 -689 741 -239 235 -429 408 -659
600 -53 44 -103 86 -111 93 -161 137 -754 572 -780 572 -6 0 -10 4 -10 8 0 5
-12 15 -27 23 -16 8 -30 16 -33 19 -3 3 -44 31 -93 63 l-87 57 3 -13162z"/>
</g>
</svg>
